<?xml version="1.0" encoding="UTF-8" standalone="no"?>
<svg
   xmlns:dc="http://purl.org/dc/elements/1.1/"
   xmlns:cc="http://creativecommons.org/ns#"
   xmlns:rdf="http://www.w3.org/1999/02/22-rdf-syntax-ns#"
   xmlns:svg="http://www.w3.org/2000/svg"
   xmlns="http://www.w3.org/2000/svg"
   xmlns:sodipodi="http://sodipodi.sourceforge.net/DTD/sodipodi-0.dtd"
   xmlns:inkscape="http://www.inkscape.org/namespaces/inkscape"
   inkscape:version="1.0rc1 (09960d6, 2020-04-09)"
   sodipodi:docname="mic_icon.svg"
   id="svg1486"
   version="1.1"
   viewBox="0 0 67.733332 67.733335"
   height="256"
   width="256">
  <defs
     id="defs1480" />
  <sodipodi:namedview
     inkscape:window-maximized="0"
     inkscape:window-y="23"
     inkscape:window-x="602"
     inkscape:window-height="943"
     inkscape:window-width="1252"
     units="px"
     showgrid="false"
     inkscape:document-rotation="0"
     inkscape:current-layer="layer1"
     inkscape:document-units="mm"
     inkscape:cy="158.62673"
     inkscape:cx="133.11593"
     inkscape:zoom="0.16101417"
     inkscape:pageshadow="2"
     inkscape:pageopacity="0.0"
     borderopacity="1.0"
     bordercolor="#666666"
     pagecolor="#ffffff"
     id="base">
    <inkscape:grid
       id="grid2049"
       type="xygrid" />
  </sodipodi:namedview>
  <metadata
     id="metadata1483">
    <rdf:RDF>
      <cc:Work
         rdf:about="">
        <dc:format>image/svg+xml</dc:format>
        <dc:type
           rdf:resource="http://purl.org/dc/dcmitype/StillImage" />
        <dc:title></dc:title>
      </cc:Work>
    </rdf:RDF>
  </metadata>
  <g
     id="layer1"
     inkscape:groupmode="layer"
     inkscape:label="Layer 1">
    <g
       transform="matrix(1.4055021,0,0,1.4055021,-7.0393002,-24.610256)"
       id="g2165">
      <path
         style="fill:none;stroke:#000000;stroke-width:2.64583;stroke-linecap:butt;stroke-linejoin:miter;stroke-miterlimit:4;stroke-dasharray:none;stroke-opacity:1"
         d="M 23.812501,63.5 H 34.395834"
         id="path2116"
         inkscape:connector-curvature="0" />
      <path
         style="fill:none;stroke:#000000;stroke-width:2.64583;stroke-linecap:butt;stroke-linejoin:miter;stroke-miterlimit:4;stroke-dasharray:none;stroke-opacity:1"
         d="M 29.104167,55.5625 V 63.5"
         id="path2118"
         inkscape:connector-curvature="0" />
      <path
         inkscape:connector-curvature="0"
         id="path2122"
         style="fill:#000000;stroke:#000000;stroke-width:0.999999;stroke-linecap:butt;stroke-miterlimit:4;stroke-dasharray:none"
         d="M 109.85547,70 A 30,30 0 0 0 80,100 a 30,30 0 0 0 0,0.14453 V 160 a 30,30 0 0 0 30,30 30,30 0 0 0 30,-30 30,30 0 0 0 0,-0.14453 V 100 a 30,30 0 0 0 -30,-30 30,30 0 0 0 -0.14453,0 z"
         transform="scale(0.26458333)" />
      <path
         id="path2134"
         style="fill:none;stroke:#000000;stroke-width:9.99999;stroke-linecap:butt;stroke-miterlimit:4;stroke-dasharray:none"
         d="m 60.000001,140 v 10 L 60,160 c -2e-6,27.61424 22.385762,50 50,50 27.61424,0 50,-22.38576 50,-50 v -10 -10"
         transform="scale(0.26458333)"
         inkscape:connector-curvature="0"
         sodipodi:nodetypes="csc" />
    </g>
  </g>
</svg>
